<svg width="112" height="113" viewBox="0 0 112 113" fill="none" xmlns="http://www.w3.org/2000/svg">
<circle cx="56.3789" cy="56.3789" r="55.3789" fill="#09C269"/>
<path fill-rule="evenodd" clip-rule="evenodd" d="M38.0476 33.4921C37.9594 33.6348 37.6778 33.7515 37.4218 33.7515C36.7895 33.7515 35.7426 37.2178 35.9091 38.7598C35.9734 39.357 35.8738 40.7795 35.6876 41.9206C35.5014 43.0616 35.1609 45.6874 34.9306 47.7556C34.7003 49.8238 34.2286 52.9748 33.8818 54.7577C32.8564 60.0331 33.1051 61.4452 35.304 62.8399C36.5455 63.6272 37.3414 63.8874 43.8826 65.6449C48.9677 67.0111 58.6728 70.2408 64.8681 72.6283C69.4311 74.3866 69.6733 74.4506 70.2737 74.0572C71.135 73.4929 72.0208 71.4356 72.65 68.5388C73.727 63.5787 77.4371 51.4172 78.5325 49.2556C79.5429 47.2616 79.2758 46.593 77.2073 45.9353C76.6368 45.7541 71.5603 43.766 65.9262 41.5173C52.7273 36.2494 48.8907 35.0295 43.1132 34.2621C41.9052 34.1018 40.5198 33.8046 40.0341 33.6018C38.9991 33.1693 38.2719 33.1291 38.0476 33.4921ZM32.7312 36.2196C32.7312 36.7214 32.4988 38.2095 32.2148 39.5261C31.5203 42.7463 31.4363 44.468 31.9687 44.5785C32.3022 44.648 32.4503 44.059 32.8147 41.217C33.3129 37.3316 33.373 35.3075 32.9905 35.3075C32.8479 35.3075 32.7312 35.718 32.7312 36.2196ZM37.7882 36.8635C37.8764 37.0061 37.8248 37.1228 37.6739 37.1228C37.5229 37.1228 37.3992 37.0061 37.3992 36.8635C37.3992 36.7209 37.4506 36.6042 37.5136 36.6042C37.5766 36.6042 37.7001 36.7209 37.7882 36.8635ZM42.8645 37.5212C46.67 38.0821 51.9485 39.5108 56.2011 41.1311C70.3559 46.5243 72.6801 47.4211 72.7898 47.5308C73.0087 47.7494 63.5374 52.3601 61.1975 53.1742C59.9519 53.6075 57.8162 54.5497 56.4521 55.2675C53.1132 57.0248 52.3339 57.0321 50.6733 55.321C50.005 54.6324 48.8748 53.0531 48.1617 51.8111C47.4485 50.5694 45.748 47.661 44.3826 45.3479C41.0245 39.6586 39.6513 37.1228 39.9288 37.1228C40.0561 37.1228 41.3772 37.302 42.8645 37.5212ZM42.9755 46.3192L44.448 48.8207L42.6324 50.6872C41.0473 52.3166 38.9418 54.7014 36.5732 57.5507C36.1902 58.0113 35.8287 58.3884 35.7698 58.3884C35.7109 58.3884 35.8637 57.0756 36.109 55.4709C36.3546 53.8664 36.6324 51.2113 36.7262 49.571C37.0017 44.7626 37.5553 40.1988 38.0898 38.3326C38.1866 37.995 38.7021 38.7227 39.8647 40.837C40.7659 42.4763 42.1658 44.9431 42.9755 46.3192ZM29.2444 39.9294C29.1381 40.4029 29.115 40.8544 29.1928 40.9325C29.3881 41.1275 29.6972 39.8173 29.5538 39.4032C29.49 39.2188 29.3507 39.4556 29.2444 39.9294ZM75.2623 49.5056C75.2623 49.6122 74.921 50.7499 74.5037 52.0341C72.9137 56.927 70.0756 66.7411 70.0756 67.3453C70.0756 68.0087 69.0087 71.0959 68.7794 71.0959C68.2415 71.0959 67.1783 68.6438 65.9532 64.5772C64.6938 60.3964 63.3328 55.3176 63.3328 54.7981C63.3328 54.6581 64.1204 54.2382 65.0833 53.8651C66.0463 53.4919 68.6427 52.3233 70.8536 51.2683C75.0221 49.2792 75.2623 49.1833 75.2623 49.5056ZM49.0429 56.0964C49.7957 56.9348 50.7708 57.8064 51.2096 58.0334C52.4257 58.662 54.1409 58.3749 56.7696 57.1023C58.026 56.4945 59.8227 55.7312 60.7625 55.4068L62.4713 54.8171L62.8982 57.2266C63.1331 58.5518 63.781 61.0767 64.338 62.8373C64.8951 64.5982 65.4884 66.739 65.6565 67.5948C65.8245 68.4506 66.0193 69.3526 66.0896 69.5992C66.1969 69.9768 65.8154 69.9001 63.6728 69.1135C55.63 66.1615 45.664 63.0616 40.907 62.0328C38.3352 61.4766 36.3092 60.7478 36.0162 60.2738C35.9319 60.1374 37.9749 57.8446 40.5561 55.1786L45.2496 50.3316L46.462 52.4519C47.1287 53.6182 48.29 55.2582 49.0429 56.0964ZM77.9723 58.4532C77.7402 59.2022 77.4972 60.6317 77.4324 61.6301L77.3147 63.4454L78.2335 60.7367C79.2431 57.7603 79.3422 57.0917 78.7734 57.0917C78.5426 57.0917 78.2293 57.6244 77.9723 58.4532ZM81.6422 59.6065C80.866 61.9366 80.8014 62.7497 81.3741 62.9693C81.9876 63.2048 82.207 62.8381 82.8025 60.5834C83.5229 57.8552 83.5255 57.7538 82.8741 57.6607C82.3899 57.5917 82.228 57.8469 81.6422 59.6065Z" fill="black"/>
<path d="M37.5896 24.1976L31.6345 17.0748L30.4462 18.6581L29.3927 17.3981L30.7594 14.6172L31.7751 13.7681L39.2996 22.7679L37.5896 24.1976Z" fill="black"/>
<path d="M46.7724 19.1108C45.7484 19.4653 44.7898 19.5312 43.8969 19.3083C43.0003 19.0748 42.2034 18.6 41.5061 17.8837C40.8158 17.1532 40.2732 16.2179 39.8784 15.0777C39.4873 13.948 39.3373 12.8827 39.4282 11.8817C39.5296 10.8771 39.8624 10.0112 40.4263 9.28389C40.9867 8.54604 41.7789 7.99984 42.803 7.64529C43.8271 7.29075 44.7874 7.2302 45.684 7.46364C46.577 7.68653 47.3686 8.16321 48.059 8.89369C48.7599 9.62051 49.3059 10.5487 49.697 11.6784C50.0917 12.8186 50.2384 13.891 50.1369 14.8956C50.0423 15.886 49.7149 16.7502 49.1545 17.488C48.5905 18.2153 47.7965 18.7562 46.7724 19.1108ZM46.1419 17.2896C46.976 17.0009 47.5363 16.4167 47.823 15.5371C48.1096 14.6576 48.0427 13.6108 47.6224 12.3966C47.2021 11.1825 46.6073 10.3184 45.8382 9.8044C45.0691 9.29036 44.2675 9.17772 43.4335 9.46647C42.5889 9.75888 42.0233 10.3449 41.7366 11.2244C41.4605 12.1003 41.5327 13.1453 41.953 14.3594C42.3733 15.5736 42.9628 16.4395 43.7213 16.9572C44.4905 17.4712 45.2973 17.582 46.1419 17.2896Z" fill="black"/>
<path d="M59.3392 17.8306C58.2648 17.6891 57.3782 17.3188 56.6796 16.7197C55.9824 16.1095 55.4824 15.3281 55.1797 14.3755C54.8894 13.4132 54.8231 12.3339 54.9806 11.1377C55.1367 9.95245 55.4795 8.93269 56.0089 8.07837C56.5495 7.22551 57.2347 6.60018 58.0646 6.20238C58.896 5.7935 59.8489 5.65981 60.9234 5.8013C61.9978 5.94279 62.8836 6.31863 63.5808 6.92881C64.2795 7.52791 64.7739 8.30859 65.0641 9.27086C65.3654 10.2346 65.4381 11.309 65.282 12.4943C65.1244 13.6905 64.7754 14.7151 64.2349 15.568C63.7069 16.4112 63.0272 17.0373 62.1958 17.4462C61.3659 17.844 60.4137 17.9721 59.3392 17.8306ZM59.5909 15.9199C60.4659 16.0351 61.2285 15.7637 61.8786 15.1055C62.5287 14.4474 62.9377 13.4814 63.1054 12.2076C63.2732 10.9338 63.1282 9.89489 62.6707 9.09089C62.2131 8.28689 61.5468 7.82727 60.6718 7.71203C59.7856 7.59534 59.0175 7.86605 58.3674 8.52418C57.7283 9.18377 57.325 10.1505 57.1572 11.4243C56.9895 12.6981 57.1288 13.7363 57.5753 14.5388C58.0329 15.3428 58.7047 15.8032 59.5909 15.9199Z" fill="black"/>
<path d="M71.1491 22.3125C70.2517 21.705 69.6248 20.9769 69.2683 20.1284C68.9181 19.2706 68.8209 18.3481 68.9767 17.3607C69.1481 16.3703 69.572 15.3756 70.2485 14.3764C70.9187 13.3865 71.6818 12.6282 72.5377 12.1013C73.4029 11.5807 74.2956 11.3284 75.2158 11.3443C76.1422 11.3509 77.0542 11.658 77.9516 12.2656C78.8489 12.8732 79.4727 13.6059 79.8229 14.4636C80.1794 15.3121 80.272 16.2316 80.1006 17.2219C79.9386 18.2186 79.5224 19.2118 78.8522 20.2017C78.1757 21.2009 77.4049 21.9607 76.5397 22.4813C75.69 22.9989 74.802 23.2544 73.8755 23.2478C72.9553 23.2319 72.0465 22.9201 71.1491 22.3125ZM72.2296 20.7167C72.9605 21.2115 73.7639 21.3102 74.6399 21.0128C75.5158 20.7154 76.314 20.0348 77.0343 18.9709C77.7546 17.907 78.0902 16.9132 78.0411 15.9894C77.9919 15.0656 77.6019 14.3563 76.8711 13.8615C76.1309 13.3604 75.3229 13.2585 74.4469 13.5559C73.5802 13.8596 72.7867 14.5434 72.0664 15.6073C71.346 16.6712 71.0058 17.6619 71.0457 18.5794C71.0949 19.5031 71.4895 20.2156 72.2296 20.7167Z" fill="black"/>
<path d="M5.08209 57.6608L16.7657 56.6079L17.4531 64.2356L15.734 64.3906L15.2391 58.8993L12.0344 59.1881L12.4842 64.1787L10.8151 64.3291L10.3654 59.3385L6.99379 59.6423L7.48867 65.1336L5.76951 65.2886L5.08209 57.6608Z" fill="black"/>
<path d="M7.4479 73.1023L18.0246 68.0279L19.1264 70.3245L14.0344 76.9126L22.3378 77.018L23.4397 79.3147L12.8631 84.3891L11.9352 82.4551L19.2331 78.9537L12.0325 78.7838L11.3004 77.2578L15.6737 71.535L8.3758 75.0363L7.4479 73.1023Z" fill="black"/>
<path d="M17.3589 90.3028L28.4691 84.5945L30.2421 86.2316L25.436 97.7608L23.7615 96.2146L24.9137 93.5833L21.5524 90.4796L19.0088 91.8263L17.3589 90.3028ZM23.1202 89.6463L25.6196 91.9542L27.6721 87.2116L23.1202 89.6463Z" fill="black"/>
<path d="M31.68 101.431L36.9908 90.9707L38.9035 91.9418L33.5927 102.402L31.68 101.431Z" fill="black"/>
<path d="M41.2483 105.544L43.7451 94.0818L45.8411 94.5383L43.701 104.363L48.7771 105.469L48.4204 107.106L41.2483 105.544Z" fill="black"/>
<path d="M65.7185 106.556L63.1048 95.1202L65.196 94.6423L67.8097 106.078L65.7185 106.556Z" fill="black"/>
<path d="M75.774 103.656L70.1453 93.3639L73.6594 91.4421C74.865 90.7827 75.973 90.457 76.9833 90.4648C77.998 90.4574 78.9033 90.7391 79.6993 91.3097C80.4997 91.8652 81.184 92.6625 81.7523 93.7016C82.3205 94.7406 82.6252 95.7518 82.6664 96.7353C82.7121 97.7036 82.4607 98.6178 81.9124 99.4779C81.3686 100.323 80.4938 101.075 79.2881 101.734L75.774 103.656ZM76.7715 101.01L78.3154 100.165C79.178 99.6936 79.7842 99.1838 80.134 98.636C80.4785 98.0783 80.6164 97.4807 80.548 96.8433C80.4742 96.196 80.2335 95.4999 79.8261 94.7549C79.4241 94.0198 78.9705 93.4465 78.4653 93.0351C77.9602 92.6237 77.38 92.4126 76.7246 92.4017C76.0692 92.3908 75.3102 92.6213 74.4476 93.093L72.9038 93.9373L76.7715 101.01Z" fill="black"/>
<path d="M90.3812 94.0302L81.7462 86.0896L86.9302 80.4522L88.2008 81.6206L84.4688 85.6791L86.8372 87.857L90.229 84.1686L91.4626 85.303L88.0708 88.9914L90.5626 91.2828L94.2947 87.2243L95.5653 88.3927L90.3812 94.0302Z" fill="black"/>
<path d="M99.7381 82.5643L90.7474 73.8932L91.7241 71.6865L104.188 72.5115L103.265 74.5956L100.403 74.3549L98.5511 78.5385L100.647 80.5109L99.7381 82.5643ZM97.256 77.3239L98.633 74.213L93.4817 73.8023L97.256 77.3239Z" fill="black"/>
<path d="M106.346 61.3794C106.269 62.2362 106.056 62.9798 105.707 63.6102C105.348 64.2397 104.878 64.719 104.299 65.0482C103.708 65.3764 103.018 65.5104 102.227 65.4504L102.43 63.1971C102.977 63.224 103.456 63.0709 103.868 62.7378C104.269 62.3925 104.499 61.8916 104.558 61.2351C104.61 60.6676 104.517 60.205 104.28 59.8471C104.032 59.4882 103.679 59.2882 103.223 59.2471C102.745 59.204 102.358 59.3206 102.064 59.5969C101.771 59.8622 101.519 60.2321 101.308 60.7066C101.097 61.1812 100.872 61.6881 100.633 62.2275C100.24 63.1007 99.777 63.7545 99.2443 64.1888C98.7126 64.612 98.0406 64.7871 97.2283 64.7139C96.5374 64.6628 95.9622 64.4483 95.5027 64.0704C95.033 63.6803 94.6913 63.1784 94.4773 62.5646C94.2523 61.9497 94.1744 61.2584 94.2436 60.4907C94.3138 59.7118 94.5145 59.04 94.8459 58.4753C95.1782 57.8995 95.6098 57.4672 96.1406 57.1785C96.6724 56.8787 97.2843 56.7488 97.9761 56.7887L97.7701 59.0753C97.3574 59.0494 96.9812 59.1781 96.6415 59.4616C96.2918 59.733 96.0923 60.1413 96.0432 60.6865C95.9899 61.1528 96.0712 61.5584 96.2869 61.9031C96.4925 62.2358 96.8234 62.4226 97.2796 62.4637C97.6691 62.4988 97.9917 62.4045 98.2474 62.1808C98.492 61.956 98.7113 61.6393 98.9051 61.2305C99.099 60.8217 99.3096 60.3527 99.5367 59.8235C99.7892 59.2629 100.07 58.7554 100.381 58.301C100.691 57.8466 101.081 57.4948 101.553 57.2456C102.013 56.9954 102.588 56.9014 103.278 56.9636C103.89 57.0187 104.443 57.2257 104.938 57.5843C105.433 57.943 105.814 58.4429 106.082 59.084C106.338 59.7241 106.426 60.4892 106.346 61.3794Z" fill="black"/>
</svg>
