<svg width="32" height="32" viewBox="0 0 32 32" fill="none" xmlns="http://www.w3.org/2000/svg">
<g clip-path="url(#clip0_729_1558)">
<path d="M16 0C13.616 0 11.7809 0.625231 10.4615 1.65415C9.14216 2.68185 8.384 4.06523 7.84616 5.34646C7.30831 6.62646 6.96369 7.85108 6.61539 8.73108C6.26708 9.61108 5.97908 9.95077 5.73046 10.0382C2.34339 11.2369 2.28018e-06 14.1785 2.28018e-06 18.0382C-0.000601042 18.3518 0.118543 18.6538 0.333101 18.8825C0.54766 19.1113 0.841447 19.2495 1.15446 19.2689C2.70154 19.3514 3.44616 19.7145 3.84616 20.0763C4.24616 20.4394 4.42954 20.9194 4.53908 21.5778C4.64739 22.2351 4.65846 23.0055 4.80739 23.8462C4.88246 24.2658 4.98462 24.7102 5.26893 25.1545C5.55446 25.5975 6.05785 26.0062 6.61539 26.192C7.92 26.6277 8.75323 26.8972 9.26893 27.1926C9.78585 27.488 10.0923 27.7502 10.4997 28.6154C10.8886 29.4375 11.4154 30.3385 12.3458 31.0006C13.2763 31.6615 14.5366 32.0197 16.1157 32C18.7015 31.968 20.2449 30.6302 21.0388 29.4609C21.4351 28.8775 21.7145 28.3692 21.9618 28.0382C22.208 27.7071 22.3557 27.5778 22.6154 27.5003C24.2991 26.9932 25.3674 26.0849 25.9618 25.0769C26.5551 24.0677 26.7126 23.1052 26.8849 22.4234C27.0572 21.7403 27.1631 21.4425 27.5385 21.1926C27.9138 20.9415 28.8074 20.6683 30.6929 20.7692C30.8609 20.7797 31.0291 20.7556 31.1874 20.6984C31.3456 20.6412 31.4905 20.5522 31.613 20.4369C31.7355 20.3215 31.833 20.1823 31.8996 20.0278C31.9662 19.8732 32.0003 19.7067 32 19.5385C32 17.8412 32.0246 15.872 31.2689 14.0382C30.5132 12.2043 28.8418 10.6363 26.0382 10C26.0086 9.99262 25.9742 10.0123 25.8462 9.84615C25.7182 9.68123 25.5569 9.35385 25.3846 8.92308C25.04 8.06154 24.6695 6.80492 24.1157 5.50031C23.5618 4.19569 22.7729 2.79508 21.4609 1.73046C20.1502 0.667077 18.3446 0 16 0ZM16 2.46154C17.8929 2.46154 19.0535 2.94892 19.9237 3.65415C20.7926 4.35938 21.376 5.35262 21.8462 6.46154C22.3175 7.56923 22.6498 8.77538 23.0769 9.84615C23.2911 10.3815 23.5212 10.8775 23.8843 11.3465C24.2474 11.8142 24.8197 12.2695 25.5003 12.4234C27.7292 12.928 28.5071 13.8043 28.9994 15.0006C29.3674 15.8905 29.3514 17.1569 29.3846 18.3852C28.0702 18.4468 26.9698 18.6351 26.192 19.1532C25.1298 19.8622 24.7151 20.9575 24.4997 21.808C24.2843 22.6572 24.1403 23.3465 23.8462 23.8462C23.552 24.3446 23.1323 24.7778 21.8843 25.1545C21.008 25.4178 20.3778 26.0197 19.9618 26.5772C19.5458 27.1335 19.2935 27.6825 18.9994 28.1157C18.4123 28.9822 17.9877 29.5138 16.0775 29.5385C14.8677 29.5545 14.2166 29.3182 13.7686 28.9994C13.3218 28.6818 13.0351 28.2228 12.7311 27.5766C12.1809 26.4123 11.4092 25.5594 10.4997 25.0388C9.59016 24.5182 8.64123 24.2658 7.38462 23.8462C7.31569 23.8228 7.36739 23.8794 7.34646 23.8462C7.28911 23.7108 7.2502 23.5684 7.23077 23.4228C7.14462 22.9354 7.11754 22.0886 6.96123 21.1545C6.80616 20.2191 6.43569 19.1175 5.50031 18.2695C4.80493 17.6394 3.79323 17.2603 2.57723 17.0388C2.89723 14.7065 4.26216 13.152 6.53908 12.3458C7.8437 11.8843 8.48985 10.7471 8.92308 9.65415C9.35631 8.56 9.664 7.344 10.1157 6.26954C10.5662 5.19508 11.1397 4.28554 12 3.61477C12.8603 2.94523 14.0345 2.46154 16 2.46154ZM12.9231 7.38462C11.904 7.38462 11.0769 8.48615 11.0769 9.84615C11.0769 11.2062 11.904 12.3077 12.9231 12.3077C13.9422 12.3077 14.7692 11.2062 14.7692 9.84615C14.7692 8.48615 13.9422 7.38462 12.9231 7.38462ZM17.8462 7.38462C16.8271 7.38462 16 8.48615 16 9.84615C16 11.2062 16.8271 12.3077 17.8462 12.3077C18.8652 12.3077 19.6923 11.2062 19.6923 9.84615C19.6923 8.48615 18.8652 7.38462 17.8462 7.38462Z" fill="#68868C"/>
</g>
<defs>
<clipPath id="clip0_729_1558">
<rect width="32" height="32" fill="white"/>
</clipPath>
</defs>
</svg>
