<svg width="32" height="32" viewBox="0 0 32 32" fill="none" xmlns="http://www.w3.org/2000/svg">
<g clip-path="url(#clip0_728_1553)">
<path d="M16 2.66669C18.829 2.66669 21.5421 3.79049 23.5425 5.79088C25.5429 7.79127 26.6667 10.5044 26.6667 13.3334V29.3334L20.108 28L16.0014 29.3334L12.012 28L5.33337 29.3334V13.3334C5.33337 10.5044 6.45718 7.79127 8.45757 5.79088C10.458 3.79049 13.1711 2.66669 16 2.66669ZM12.6667 16C13.1971 16 13.7058 15.7893 14.0809 15.4142C14.456 15.0392 14.6667 14.5305 14.6667 14C14.6667 13.4696 14.456 12.9609 14.0809 12.5858C13.7058 12.2107 13.1971 12 12.6667 12C12.1363 12 11.6276 12.2107 11.2525 12.5858C10.8774 12.9609 10.6667 13.4696 10.6667 14C10.6667 14.5305 10.8774 15.0392 11.2525 15.4142C11.6276 15.7893 12.1363 16 12.6667 16ZM19.3334 16C19.8638 16 20.3725 15.7893 20.7476 15.4142C21.1227 15.0392 21.3334 14.5305 21.3334 14C21.3334 13.4696 21.1227 12.9609 20.7476 12.5858C20.3725 12.2107 19.8638 12 19.3334 12C18.8029 12 18.2942 12.2107 17.9192 12.5858C17.5441 12.9609 17.3334 13.4696 17.3334 14C17.3334 14.5305 17.5441 15.0392 17.9192 15.4142C18.2942 15.7893 18.8029 16 19.3334 16Z" fill="#68868C"/>
</g>
<defs>
<clipPath id="clip0_728_1553">
<rect width="32" height="32" fill="white"/>
</clipPath>
</defs>
</svg>
