<svg width="224" height="224" viewBox="0 0 224 224" fill="none" xmlns="http://www.w3.org/2000/svg">
<path fill-rule="evenodd" clip-rule="evenodd" d="M222.846 76.5919C221.969 75.3151 220.51 74.6601 219.038 74.6601H135.25L177.032 7.87497C178.108 6.15994 178.168 3.81251 176.862 1.93035C175.976 0.651981 174.501 0 173.024 0H100.871C93.6268 0 86.8579 3.88478 82.8002 10.37L0.800322 141.447C-0.272408 143.163 -0.317544 145.511 0.974847 147.393C1.85048 148.668 3.30988 149.322 4.78281 149.322H88.5294L46.7426 216.123C45.9904 217.328 45.7602 218.844 46.1032 220.29C46.6313 222.529 48.6143 223.998 50.7522 223.998H122.863C130.161 223.998 136.981 220.083 141.068 213.55L181.237 149.322H181.239L223.018 82.5366C224.092 80.8215 224.137 78.4711 222.846 76.5919Z" fill="#4E48E0"/>
<path fill-rule="evenodd" clip-rule="evenodd" d="M181.241 149.31L141.063 213.552C136.977 220.087 130.155 224 122.858 224H50.7476C48.6096 224 46.6267 222.532 46.0986 220.293C45.7555 218.847 45.9857 217.331 46.738 216.127L88.5323 149.31H181.241Z" fill="#4E48E0"/>
<path fill-rule="evenodd" clip-rule="evenodd" d="M135.196 74.6625H219.039C220.51 74.6625 221.97 75.3175 222.847 76.5928C224.139 78.4735 224.091 80.8224 223.02 82.5389L181.241 149.324H88.4954L135.196 74.6625Z" fill="#1C81C1"/>
<path fill-rule="evenodd" clip-rule="evenodd" d="M4.78243 149.322C3.31101 149.322 1.85161 148.668 0.975975 147.393C-0.317921 145.511 -0.272785 143.163 0.80145 141.448L82.8013 10.37C86.8575 3.88478 93.6279 0 100.871 0H173.023C174.501 0 175.977 0.653487 176.863 1.93035C178.167 3.81251 178.107 6.15994 177.033 7.87647L88.5381 149.322H4.78243Z" fill="#5CC4CD"/>
</svg>
