<svg width="40" height="34" viewBox="0 0 40 34" fill="none" xmlns="http://www.w3.org/2000/svg">
<path d="M34.9632 0H4.32C1.9296 0 0 2.01657 0 4.51471V33.1982L5.96161 27.0281H34.992C37.3824 27.0281 39.312 25.0115 39.312 22.5134V4.51471C39.2832 2.01657 37.3536 0 34.9632 0ZM9.1872 20.2259C9.1872 20.8881 8.6688 21.4298 8.0352 21.4298C7.4016 21.4298 6.8832 20.8881 6.8832 20.2259V7.43423C6.8832 6.77207 7.4016 6.2303 8.0352 6.2303C8.6688 6.2303 9.1872 6.77207 9.1872 7.43423V20.2259ZM14.544 20.2259C14.544 20.8881 14.0256 21.4298 13.392 21.4298C12.7584 21.4298 12.24 20.8881 12.24 20.2259V11.7684C12.24 11.1062 12.7584 10.5644 13.392 10.5644C14.0256 10.5644 14.544 11.1062 14.544 11.7684V20.2259ZM14.688 7.9158C14.688 8.63815 14.1408 9.21002 13.4496 9.21002H13.3344C12.6432 9.21002 12.096 8.63815 12.096 7.9158V7.8255C12.096 7.10315 12.6432 6.53129 13.3344 6.53129H13.4496C14.1408 6.53129 14.688 7.10315 14.688 7.8255V7.9158ZM22.8096 21.1289C22.2912 21.3997 21.7152 21.5201 21.1104 21.5201C19.1232 21.5201 18.0576 20.5269 18.0576 18.6307V12.8218H17.0208C16.6752 12.8218 16.3872 12.5509 16.3872 12.1897V12.1596C16.3872 11.9489 16.5024 11.7383 16.6752 11.5878L19.2384 8.96923C19.3824 8.81874 19.5552 8.72845 19.7568 8.69835C20.1024 8.69835 20.4192 8.99933 20.4192 9.36051C20.4192 9.36051 20.4192 9.36051 20.4192 9.3906V10.6547H22.2624C22.8384 10.6547 23.2992 11.1363 23.2992 11.7383C23.2992 12.3402 22.8384 12.8218 22.2624 12.8218H20.4192V18.4802C20.4192 19.2929 20.8224 19.3531 21.3696 19.3531C21.6 19.3531 21.8304 19.323 22.032 19.2628C22.176 19.2026 22.3488 19.2026 22.4928 19.1725C23.0112 19.1725 23.4432 19.624 23.472 20.1958C23.4144 20.5871 23.1552 20.9784 22.8096 21.1289ZM29.8656 19.2628C30.7008 19.2929 31.536 19.0822 32.2848 18.6909C32.4288 18.6006 32.6016 18.5705 32.7456 18.5705C33.3216 18.5705 33.7824 19.022 33.7824 19.624C33.7824 19.624 33.7824 19.624 33.7824 19.6541C33.7536 20.0754 33.5232 20.4667 33.1488 20.6473C32.3424 21.1289 31.4784 21.5502 29.6928 21.5502C26.4672 21.5502 24.5088 19.4735 24.5088 16.0122C24.5088 11.9489 27.1008 10.4741 29.2896 10.4741C32.5728 10.4741 34.0704 13.2131 34.0704 15.7413C34.0992 16.3734 33.6096 16.9151 33.0048 16.9452C32.976 16.9452 32.9472 16.9452 32.9184 16.9452H26.8704C27.1872 18.4501 28.224 19.2628 29.8656 19.2628Z" fill="#09C269"/>
<path d="M29.3476 12.611C28.0804 12.5809 27.0148 13.5741 26.8996 14.8984H31.8244C31.6804 13.5741 30.6148 12.5809 29.3476 12.611Z" fill="#09C269"/>
</svg>
