<svg width="49" height="42" viewBox="0 0 49 42" fill="none" xmlns="http://www.w3.org/2000/svg">
<path fill-rule="evenodd" clip-rule="evenodd" d="M13.8662 16.955L21.6128 24.4181L20.527 31.8179C20.527 31.8179 14.1579 33.4948 12.5179 33.0003C10.8778 32.5058 7.34412 28.8017 7.34412 28.8017L4.94876 26.4784C1.15388 22.5551 3.21489 18.2201 4.58139 17.0142C6.11163 15.3581 10.0782 13.7093 13.8662 16.955Z" fill="#47AE7D"/>
<path fill-rule="evenodd" clip-rule="evenodd" d="M44.3823 17.0874L25.2554 36.2143C22.5283 38.8979 18.0264 39.1326 15.0353 36.1671L10.8398 32.0995L7.32901 28.7853C7.32901 28.7853 11.8794 30.8227 15.2563 27.9013C17.0267 26.6104 32.9408 11.0538 35.1811 8.86162C35.3614 8.68515 35.5298 8.51314 35.7157 8.3425C38.8688 5.44791 42.7844 6.67605 44.4669 8.36201C46.2874 9.98877 47.5501 14.0336 44.3823 17.0874Z" fill="#5ED69D"/>
</svg>
