<svg width="32" height="32" viewBox="0 0 32 32" fill="none" xmlns="http://www.w3.org/2000/svg">
<path d="M17.5 13.5C17.5 16 16 19.5 16 19.5M16.5 14.5C16.5 14.5 18 10.5 14.5 7.50003C11 4.50003 5.5 5.50003 5.5 5.50003C5.5 5.50003 5.5 9.50003 8.5 12.5C11.5 15.5 16.5 14.5 16.5 14.5ZM17.5 12.5C17.5 12.5 16 8.50003 19.5 5.50003C23 2.50003 28.5 3.50003 28.5 3.50003C28.5 3.50003 28.5 7.50003 25.5 10.5C22.5 13.5 17.5 12.5 17.5 12.5ZM9.5 19.5H22.5C22.5 19.5 23.5 28.5 16 28.5C8.5 28.5 9.5 19.5 9.5 19.5Z" stroke="#68868C" stroke-width="2.8125" stroke-linecap="round" stroke-linejoin="round"/>
</svg>
